<svg xmlns="http://www.w3.org/2000/svg" viewBox="0 0 64 64">
  <rect width="64" height="64" rx="14" fill="#0a0a0a"/>
  <path d="M45.3 20.3c-2.8-3.1-7.1-4.8-12.4-4.8-9.3 0-15.4 4.8-15.4 11.7 0 6.1 3.7 9.6 11.8 12.2 6.4 2 8 3.2 8 5.9 0 2.8-2.5 4.7-6.4 4.7-4 0-7.4-1.4-10.5-4.6l-4.4 5.1c3.7 4.2 9.1 6.3 14.9 6.3 9.5 0 15.9-4.8 15.9-12.4 0-5.9-2.9-9.4-10.8-12-7.2-2.3-9-3.4-9-6.1 0-2.3 2.1-4 5.7-4 3.3 0 6 .9 8.8 3.4z" fill="#f5f2ed"/>
  <path d="M20 14h24" stroke="#3b82f6" stroke-width="2" stroke-linecap="round" opacity=".8"/>
</svg>
